<svg xmlns="http://www.w3.org/2000/svg" width="234" height="233" viewBox="0 0 234 233">
  <g fill="none" fill-rule="evenodd" transform="translate(2 1)">
    <polygon stroke="#131614" stroke-width="3.7" points=".5 230.2 229.7 230.2 229.7 1 .5 1"/>
    <path fill="#131614" d="M57.1 103.3a11.6 11.6 0 0 0-4.3-3.4 12.2 12.2 0 0 0-7.7-1 5 5 0 0 0-2.4.9c-.7.4-1.3 1-1.7 1.6-.5.7-.8 1.6-.8 2.6 0 .9.2 1.7.6 2.3a5 5 0 0 0 1.7 1.5c.7.5 1.5.9 2.5 1.3l3.4 1.1 5.7 2a21 21 0 0 1 5.3 3 12.9 12.9 0 0 1 5.6 11.1 15.8 15.8 0 0 1-6.2 13.4c-2 1.4-4.2 2.5-6.6 3.2a31.4 31.4 0 0 1-18.6-1 23.4 23.4 0 0 1-9-5.6l8.5-8.6c1.3 1.6 3 3 5.1 4a14 14 0 0 0 9.2 1.4 7 7 0 0 0 2.3-1c.7-.4 1.3-1 1.7-1.8a6 6 0 0 0 .6-2.7c0-1-.3-1.9-.8-2.6a7.3 7.3 0 0 0-2.1-1.9l-3.5-1.6L41 120a30.7 30.7 0 0 1-9.3-4.8 13.4 13.4 0 0 1-4.3-10.4A15 15 0 0 1 34 92a19 19 0 0 1 6.6-3 27.7 27.7 0 0 1 24.9 5.6l-8.3 8.7"/>
    <polygon fill="#131614" points="73.4 142.6 86.4 142.6 86.4 89.4 73.4 89.4"/>
    <polyline fill="#131614" points="145.6 142.6 145.9 105 145.7 105 131.8 142.6 122.8 142.6 109.4 105 109.1 105 109.4 142.6 97.3 142.6 97.3 89.4 115.6 89.4 127.7 123.5 128 123.5 139.6 89.4 158.2 89.4 158.2 142.6 145.6 142.6"/>
    <path fill="#131614" d="M197.2 103.3a11.6 11.6 0 0 0-4.3-3.4 12.2 12.2 0 0 0-7.8-1 5 5 0 0 0-2.3.9c-.7.4-1.3 1-1.8 1.6-.5.7-.7 1.6-.7 2.6 0 .9.2 1.7.6 2.3a5 5 0 0 0 1.6 1.5c.7.5 1.6.9 2.6 1.3l3.4 1.1 5.6 2a21 21 0 0 1 5.4 3 12.9 12.9 0 0 1 5.6 11.1 16.7 16.7 0 0 1-6.3 13.4c-2 1.4-4.1 2.5-6.6 3.2a31.4 31.4 0 0 1-18.6-1 23.4 23.4 0 0 1-8.9-5.6l8.5-8.6c1.3 1.6 3 3 5.1 4a14 14 0 0 0 9.1 1.4c1-.2 1.7-.5 2.4-1a4 4 0 0 0 1.6-1.8 6 6 0 0 0 .6-2.7c0-1-.2-1.9-.7-2.6a7.3 7.3 0 0 0-2.2-1.9l-3.4-1.6-4.7-1.5a30.7 30.7 0 0 1-9.4-4.8 13.4 13.4 0 0 1-4.2-10.4 15 15 0 0 1 6.5-12.8c2-1.4 4.2-2.4 6.6-3a27.7 27.7 0 0 1 24.9 5.6l-8.2 8.7"/>
  </g>
</svg>
